<?xml version="1.0" encoding="UTF-8"?>
<svg version="1.1" xmlns="http://www.w3.org/2000/svg" width="238" height="133">
<path d="M0 0 C5.34812013 5.2729709 7.88956483 10.44132646 8 18 C7.36766646 25.46755798 5.74183377 31.5141548 2 38 C1 35 1 35 2 32 C2.96503256 20.22520267 2.96503256 20.22520267 -2 10 C-9.47871579 2.72341166 -17.95820218 2.01046021 -28 2 C-48.57138583 3.24059893 -67.05633008 13.14606083 -81 28 C-87.95745265 36.49254896 -92.21975681 44.83949349 -92 56 C-91.25894937 61.0375676 -89.66115687 64.79131147 -85.9375 68.3125 C-84.04873306 69.74377931 -84.04873306 69.74377931 -82 71 C-81.02160156 71.62068359 -81.02160156 71.62068359 -80.0234375 72.25390625 C-69.52313263 77.57826579 -55.3043103 75.60557756 -44 74 C-53.25464331 84.09862021 -74.13150692 89.48356009 -87.43359375 90.1796875 C-97.68164434 90.37488846 -107.60620772 89.41235238 -115.73046875 82.53515625 C-120.85409718 77.15850913 -122.56911656 70.87795098 -123.375 63.625 C-121.2971042 43.53867391 -110.53172865 28.90335605 -95.5 16.1875 C-69.31137316 -4.34970243 -29.42720465 -24.09581056 0 0 Z " fill="#38B6FE" transform="translate(129,22)"/>
<path d="M0 0 C1.25365608 -0.01210762 1.25365608 -0.01210762 2.53263855 -0.02445984 C4.31234653 -0.03832979 6.09208144 -0.04903884 7.87182617 -0.05688477 C10.55636948 -0.07390741 13.23961869 -0.11774023 15.92382812 -0.16210938 C27.66831336 -0.27072462 39.27397076 -0.05539537 48.35546875 8.48828125 C53.89702347 13.94088646 55.81102038 18.43138392 56.23046875 26.11328125 C55.92316134 34.4617992 52.54487287 41.4589528 46.8359375 47.484375 C40.4480411 52.96843902 32.98361147 55.07067899 24.79296875 56.23828125 C29.65439904 60.70665973 34.53457973 65.09746708 39.73046875 69.17578125 C45.32318339 73.58593461 50.69282971 78.26419128 55.79296875 83.23828125 C55.79296875 83.56828125 55.79296875 83.89828125 55.79296875 84.23828125 C51.34560133 84.33760401 46.89883162 84.40996128 42.45068359 84.45800781 C40.93950139 84.47804916 39.42839603 84.5052903 37.91748047 84.54003906 C35.73776232 84.58889234 33.55907444 84.61132349 31.37890625 84.62890625 C30.06970215 84.64985352 28.76049805 84.67080078 27.41162109 84.69238281 C20.9559007 83.88226003 17.17939386 79.87446368 12.7890625 75.359375 C11.88349609 74.43833984 10.97792969 73.51730469 10.04492188 72.56835938 C9.10616504 71.60475646 8.16801881 70.64055835 7.23046875 69.67578125 C5.3808547 67.77265675 3.52469025 65.87683102 1.6640625 63.984375 C0.8486499 63.14575928 0.0332373 62.30714355 -0.80688477 61.44311523 C-4.87298704 57.70789301 -7.95174186 55.88902071 -13.5078125 55.7265625 C-14.48427734 55.69111328 -15.46074219 55.65566406 -16.46679688 55.61914062 C-17.47419922 55.59658203 -18.48160156 55.57402344 -19.51953125 55.55078125 C-21.05963867 55.49954102 -21.05963867 55.49954102 -22.63085938 55.44726562 C-25.15614088 55.36504716 -27.68108665 55.29581189 -30.20703125 55.23828125 C-30.20703125 54.57828125 -30.20703125 53.91828125 -30.20703125 53.23828125 C-28.56199771 51.7014143 -26.8041572 50.3551114 -25.03125 48.96875 C-23.03790288 47.29813813 -23.03790288 47.29813813 -22.05859375 44.66992188 C-20.20703125 42.23828125 -20.20703125 42.23828125 -16.87231445 41.6105957 C-15.50108869 41.58297312 -14.12917198 41.58165556 -12.7578125 41.6015625 C-12.0263652 41.59118454 -11.29491791 41.58080658 -10.54130554 41.57011414 C-8.2002391 41.54040901 -5.86075194 41.54379972 -3.51953125 41.55078125 C-1.19660799 41.54184228 1.12589299 41.52566858 3.44868469 41.49931335 C4.89228838 41.48459207 6.3360558 41.480478 7.77970886 41.48908997 C13.89855985 41.45503533 20.09182708 40.74849126 25.23046875 37.17578125 C28.20802854 33.762481 28.61569121 31.80680499 28.98046875 27.421875 C28.75226112 24.76420692 28.36003437 23.41525593 26.79296875 21.23828125 C22.2358643 18.48300013 18.71447987 17.83583313 13.42578125 17.7265625 C12.74619354 17.7086113 12.06660583 17.6906601 11.36642456 17.67216492 C9.21700056 17.61841308 7.06779398 17.58428189 4.91796875 17.55078125 C3.45179288 17.51757687 1.98564558 17.48308435 0.51953125 17.44726562 C-3.05578073 17.36270927 -6.63116917 17.29573119 -10.20703125 17.23828125 C-10.0668132 14.59203841 -9.92013349 11.94643547 -9.76953125 9.30078125 C-9.73021484 8.54603516 -9.69089844 7.79128906 -9.65039062 7.01367188 C-9.19059481 -0.87359472 -7.22426708 0.06586086 0 0 Z " fill="#49E4FE" transform="translate(174.20703125,37.76171875)"/>
<path d="M0 0 C30.22950933 -1.06760017 30.22950933 -1.06760017 40.75 7.375 C43.72884771 10.32222512 44.97558013 12.90232051 46 17 C46.515625 17.515625 47.03125 18.03125 47.5625 18.5625 C50.77917243 21.77917243 50.19155203 27.28118638 50.25 31.5625 C50.05901834 48.24735247 43.16613444 62.79169301 32 75 C31.53851563 75.50917969 31.07703125 76.01835938 30.6015625 76.54296875 C14.18442754 94.44870403 -7.44944728 105.43523005 -31 111 C-31.74403076 111.18328857 -32.48806152 111.36657715 -33.25463867 111.55541992 C-48.88777387 115.08752006 -68.50513769 115.65725613 -83 108 C-84.875 106.33203125 -84.875 106.33203125 -86 105 C-85.01515625 105.15726562 -84.0303125 105.31453125 -83.015625 105.4765625 C-52.8544014 109.72696563 -26.05349772 95.99416505 -2.5625 78.3125 C2.4844699 74.40609706 7.24371263 70.19647562 11.9375 65.875 C12.55230225 65.31337158 13.16710449 64.75174316 13.80053711 64.1730957 C19.19789924 59.10271253 24.88594986 53.43053604 26.75 46.0625 C26.9665625 45.21945313 27.183125 44.37640625 27.40625 43.5078125 C27.6021875 42.68023437 27.798125 41.85265625 28 41 C28.2165625 40.23429687 28.433125 39.46859375 28.65625 38.6796875 C30.94476933 30.0375158 29.77940344 23.12764057 25.49609375 15.2890625 C20.25177717 7.26512121 11.2908546 3.39701539 2.1328125 1.36328125 C1.42898437 1.24339844 0.72515625 1.12351562 0 1 C0 0.67 0 0.34 0 0 Z M44 22 C45 25 45 25 45 25 Z M43 26 C44 28 44 28 44 28 Z " fill="#3DBFFE" transform="translate(110,8)"/>
<path d="M0 0 C0.99 0.33 1.98 0.66 3 1 C3.97230766 4.99726482 3.90098561 8.28559938 3.375 12.3125 C2.74614734 18.56703452 3.3719897 23.7386465 7.41015625 28.75 C9.17425097 30.41817468 10.94654788 31.70577443 13 33 C13.97839844 33.62068359 13.97839844 33.62068359 14.9765625 34.25390625 C25.47686737 39.57826579 39.6956897 37.60557756 51 36 C41.74535669 46.09862021 20.86849308 51.48356009 7.56640625 52.1796875 C-2.68164434 52.37488846 -12.60620772 51.41235238 -20.73046875 44.53515625 C-25.8875602 39.12339362 -28.14235147 32.30945782 -28.1875 24.875 C-28.125625 23.92625 -28.06375 22.9775 -28 22 C-27.67 22 -27.34 22 -27 22 C-26.67 23.65 -26.34 25.3 -26 27 C-22.79983396 24.23228883 -20.8988861 22.24951418 -19.625 18.1875 C-17.78761931 12.65435929 -13.96386081 7.73305828 -8.90234375 4.7734375 C-7 4 -7 4 -5 4 C-3.97895449 3.02149805 -2.9793879 2.02019573 -2 1 C-1.34 0.67 -0.68 0.34 0 0 Z " fill="#5881F2" transform="translate(34,60)"/>
<path d="M0 0 C1.5625 1.1875 1.5625 1.1875 3 3 C3.1875 5.5 3.1875 5.5 2 8 C-2.57221343 10.70125926 -7.79682141 11.45800223 -13 12 C-8.13856971 16.46837848 -3.25838902 20.85918583 1.9375 24.9375 C7.53021464 29.34765336 12.89986096 34.02591003 18 39 C18 39.33 18 39.66 18 40 C13.55263258 40.09932276 9.10586287 40.17168003 4.65771484 40.21972656 C3.14653264 40.23976791 1.63542728 40.26700905 0.12451172 40.30175781 C-2.05520643 40.35061109 -4.23389431 40.37304224 -6.4140625 40.390625 C-7.7232666 40.41157227 -9.0324707 40.43251953 -10.38134766 40.45410156 C-16.83706805 39.64397878 -20.61357489 35.63618243 -25.00390625 31.12109375 C-25.90947266 30.20005859 -26.81503906 29.27902344 -27.74804688 28.33007812 C-28.68680371 27.36647521 -29.62494994 26.4022771 -30.5625 25.4375 C-32.41211405 23.5343755 -34.2682785 21.63854977 -36.12890625 19.74609375 C-36.94431885 18.90747803 -37.75973145 18.0688623 -38.59985352 17.20483398 C-42.66595579 13.46961176 -45.74471061 11.65073946 -51.30078125 11.48828125 C-52.27724609 11.45283203 -53.25371094 11.41738281 -54.25976562 11.38085938 C-55.26716797 11.35830078 -56.27457031 11.33574219 -57.3125 11.3125 C-58.33923828 11.27833984 -59.36597656 11.24417969 -60.42382812 11.20898438 C-62.94910963 11.12676591 -65.4740554 11.05753064 -68 11 C-67.67 10.34 -67.34 9.68 -67 9 C-60.73 9.33 -54.46 9.66 -48 10 C-48.99 9.67 -49.98 9.34 -51 9 C-51 8.34 -51 7.68 -51 7 C-52.32 7.33 -53.64 7.66 -55 8 C-55 7.01 -55 6.02 -55 5 C-53.91332031 4.81824219 -53.91332031 4.81824219 -52.8046875 4.6328125 C-48.58473864 3.9013547 -44.56325807 3.19110542 -40.5 1.8125 C-38 1 -38 1 -35 2 C-34.278125 1.855625 -33.55625 1.71125 -32.8125 1.5625 C-29.14407839 0.82881568 -25.73938954 0.93662052 -22 1 C-22 1.66 -22 2.32 -22 3 C-20.68 2.34 -19.36 1.68 -18 1 C-18 1.66 -18 2.32 -18 3 C-8.86850922 2.20092601 -8.86850922 2.20092601 0 0 Z " fill="#50C4F4" transform="translate(212,82)"/>
<path d="M0 0 C0 0.99 0 1.98 0 3 C1.051875 3.185625 1.051875 3.185625 2.125 3.375 C5.1778811 4.03866981 8.03777118 5.01259039 11 6 C12.66088045 6.36106097 14.32618981 6.70462173 16 7 C16 7.99 16 8.98 16 10 C8.24245243 13.9182955 0.54804674 17.38190029 -7.8125 19.8125 C-8.48015381 20.00674561 -9.14780762 20.20099121 -9.83569336 20.40112305 C-11.88291719 20.97120115 -13.93560627 21.49569709 -16 22 C-16.74983154 22.18618896 -17.49966309 22.37237793 -18.2722168 22.56420898 C-33.89818036 26.09122573 -53.51392886 26.65261199 -68 19 C-69.875 17.33203125 -69.875 17.33203125 -71 16 C-69.52273437 16.23589844 -69.52273437 16.23589844 -68.015625 16.4765625 C-45.50805461 19.64839163 -24.25933968 13.1119729 -5.1484375 1.2265625 C-3 0 -3 0 0 0 Z " fill="#5B7DE9" transform="translate(95,97)"/>
<path d="M0 0 C1.76171875 1.53125 1.76171875 1.53125 3 3 C-0.25466572 5.07115091 -3.26594212 6.52776292 -6.9375 7.6875 C-23.68259916 13.67432309 -36.43247261 24.0490728 -46 39 C-46.98858682 40.34181738 -47.98512573 41.6779531 -49 43 C-49.33 42.01 -49.66 41.02 -50 40 C-52.93443402 40.26656572 -52.93443402 40.26656572 -56 41 C-56.66 41.99 -57.32 42.98 -58 44 C-58.598125 44.144375 -59.19625 44.28875 -59.8125 44.4375 C-65.39113341 45.87200573 -68.13245493 50.37916748 -70.984375 55 C-72.0760192 56.95381815 -72.0760192 56.95381815 -72.48828125 59.08203125 C-73.32874758 62.23217603 -75.63844745 63.86884282 -78 66 C-78.99 66.495 -78.99 66.495 -80 67 C-80.57264528 58.77617753 -79.38604341 52.500031 -76 45 C-75.61457031 44.1234375 -75.22914062 43.246875 -74.83203125 42.34375 C-73.70057158 40.02956711 -72.61763959 38.00456779 -71 36 C-67.9375 35 -67.9375 35 -65 35 C-64.236875 34.79375 -63.47375 34.5875 -62.6875 34.375 C-61.8521875 34.189375 -61.8521875 34.189375 -61 34 C-60.505 34.495 -60.505 34.495 -60 35 C-55.00757908 33.16604946 -51.60966623 31.0275639 -47.67578125 27.46875 C-45.29171201 25.37921612 -42.64404881 23.74507222 -40 22 C-35.65666765 18.75644721 -31.42925483 15.41122058 -27.375 11.8125 C-24.67954749 9.47024472 -21.96248417 7.67646715 -18.80859375 6.01171875 C-16.94152735 5.0103646 -16.94152735 5.0103646 -15.09765625 3.64453125 C-10.28741752 0.24402585 -5.92491847 -1.40234757 0 0 Z " fill="#429EFE" transform="translate(87,21)"/>
<path d="M0 0 C30.47628202 -1.07631531 30.47628202 -1.07631531 40.8125 7.625 C44.04218855 10.77893893 44.93766264 12.22701672 45.3125 16.875 C45.1713178 26.61657214 41.2564027 34.75489117 35 42 C34.56429687 42.56589844 34.12859375 43.13179687 33.6796875 43.71484375 C31.14024052 46.98098783 28.67750967 49.10870931 25 51 C25.29003906 50.07380859 25.29003906 50.07380859 25.5859375 49.12890625 C26.41686958 46.42632022 27.21621079 43.71662863 28 41 C28.22429687 40.22398438 28.44859375 39.44796875 28.6796875 38.6484375 C30.91088683 29.99871956 29.781949 23.13229902 25.49609375 15.2890625 C20.25177717 7.26512121 11.2908546 3.39701539 2.1328125 1.36328125 C1.42898437 1.24339844 0.72515625 1.12351562 0 1 C0 0.67 0 0.34 0 0 Z " fill="#FEFE43" transform="translate(110,8)"/>
<path d="M0 0 C0.83577072 -0.00807175 1.67154144 -0.01614349 2.53263855 -0.02445984 C4.31234653 -0.03832979 6.09208144 -0.04903884 7.87182617 -0.05688477 C10.55636948 -0.07390741 13.23961869 -0.11774023 15.92382812 -0.16210938 C27.78720586 -0.27210151 39.38696265 -0.08129661 48.41796875 8.73828125 C49.21460938 9.49109375 50.01125 10.24390625 50.83203125 11.01953125 C55.03606904 15.77629114 54.99759075 19.09962136 54.79296875 25.23828125 C52.79296875 22.23828125 52.79296875 22.23828125 51.98046875 20.11328125 C50.91712522 17.95454667 50.91712522 17.95454667 48.23046875 17.61328125 C47.42609375 17.48953125 46.62171875 17.36578125 45.79296875 17.23828125 C45.29796875 16.24828125 45.29796875 16.24828125 44.79296875 15.23828125 C43.14296875 15.56828125 41.49296875 15.89828125 39.79296875 16.23828125 C39.29796875 14.75328125 39.29796875 14.75328125 38.79296875 13.23828125 C35.45044151 13.16400287 32.98937735 13.17281172 29.79296875 14.23828125 C28.45010743 13.94568532 27.11854495 13.60123664 25.79296875 13.23828125 C23.2103603 12.8618798 20.63132774 12.5060539 18.04296875 12.17578125 C17.34558594 12.08490234 16.64820313 11.99402344 15.9296875 11.90039062 C14.21771827 11.67760011 12.50537888 11.45765718 10.79296875 11.23828125 C10.46296875 11.89828125 10.13296875 12.55828125 9.79296875 13.23828125 C9.79296875 12.57828125 9.79296875 11.91828125 9.79296875 11.23828125 C8.78234375 11.44453125 7.77171875 11.65078125 6.73046875 11.86328125 C2.47829647 12.26825004 -0.15804035 11.43798226 -4.20703125 10.23828125 C-7.02848028 10.51563063 -7.02848028 10.51563063 -9.20703125 11.23828125 C-9.23391276 9.59253559 -9.25337248 7.94666712 -9.26953125 6.30078125 C-9.28113281 5.38425781 -9.29273438 4.46773437 -9.3046875 3.5234375 C-9.0860168 -1.59345695 -3.99571387 0.03642738 0 0 Z " fill="#46FCFE" transform="translate(174.20703125,37.76171875)"/>
<path d="M0 0 C2 2 2 2 2 3 C3.32 3 4.64 3 6 3 C6.495 3.99 6.495 3.99 7 5 C9.3306218 5.35179197 11.66435067 5.68330179 14 6 C15.3530895 6.62559654 16.69241523 7.28414785 18 8 C11.9083346 15.46229011 5.40479369 21.30028563 -2.6875 26.5625 C-3.76386719 27.26503906 -4.84023437 27.96757813 -5.94921875 28.69140625 C-9 30 -9 30 -11.671875 29.24609375 C-12.44015625 28.83488281 -13.2084375 28.42367187 -14 28 C-15.175625 27.835 -16.35125 27.67 -17.5625 27.5 C-20.62754375 27.05417546 -22.37119755 26.50217283 -25 25 C-25.99 24.67 -26.98 24.34 -28 24 C-27.91015625 21.8046875 -27.91015625 21.8046875 -27 19 C-24.83097904 17.16942871 -22.79898998 15.65749819 -20.4375 14.125 C-19.15386007 13.25612453 -17.87259535 12.38372951 -16.59375 11.5078125 C-15.97371094 11.0840332 -15.35367188 10.66025391 -14.71484375 10.22363281 C-12.48015414 8.62906215 -10.45732534 6.8566856 -8.4375 5 C-5.7881146 2.57851872 -3.5238091 0.99107131 0 0 Z " fill="#42ACFE" transform="translate(122,76)"/>
<path d="M0 0 C2.96555837 2.44980909 3.43946162 4.24910766 4 8 C4.61388531 17.45619489 4.32454572 27.35090856 0 36 C-9.41002278 35.03644647 -9.41002278 35.03644647 -14 34 C-14 33.34 -14 32.68 -14 32 C-14.53109375 32.48210938 -15.0621875 32.96421875 -15.609375 33.4609375 C-16.31578125 34.09257813 -17.0221875 34.72421875 -17.75 35.375 C-18.44609375 36.00148437 -19.1421875 36.62796875 -19.859375 37.2734375 C-21.84508688 38.87505183 -23.67954093 39.96520068 -26 41 C-23.21297251 37.68569704 -20.43708727 34.44430643 -17.3984375 31.35546875 C-8.61545298 22.39498838 -2.26862713 12.60348403 0 0 Z " fill="#3DDFFE" transform="translate(156,25)"/>
<path d="M0 0 C-0.93199219 0.3403125 -1.86398438 0.680625 -2.82421875 1.03125 C-11.96119862 4.46847184 -19.78971165 8.67872827 -28 14 C-29.30514974 14.76271909 -30.61619616 15.51562106 -31.9375 16.25 C-35.06072857 17.98192246 -35.06072857 17.98192246 -38.125 20.125 C-44.45165945 24.25108225 -44.45165945 24.25108225 -48.3125 23.625 C-49.1478125 23.315625 -49.1478125 23.315625 -50 23 C-50 22.34 -50 21.68 -50 21 C-53.96 21.495 -53.96 21.495 -58 22 C-58.33 21.34 -58.66 20.68 -59 20 C-43.80358056 11.07255264 -28.42257946 3.44622451 -11 0 C-10.29230469 -0.14179688 -9.58460937 -0.28359375 -8.85546875 -0.4296875 C-5.57672827 -0.99570165 -3.17318041 -0.90271512 0 0 Z " fill="#32D4FE" transform="translate(102,11)"/>
<path d="M0 0 C6.93 0.495 6.93 0.495 14 1 C12.73657207 6.05371173 10.32041198 7.14596799 6.125 9.6875 C5.48691406 10.09033203 4.84882812 10.49316406 4.19140625 10.90820312 C1.49266427 12.58998701 -0.97375343 13.99125114 -4 15 C-5.33333333 14.33333333 -6.66666667 13.66666667 -8 13 C-9.155 12.835 -10.31 12.67 -11.5 12.5 C-14.60568506 12.05633071 -16.34199793 11.51885833 -19 10 C-19.99 9.67 -20.98 9.34 -22 9 C-22 7.68 -22 6.36 -22 5 C-17.72225003 3.30879652 -15.42543384 3.0922187 -11 4 C-9.327767 3.34742127 -7.66072849 2.68132451 -6 2 C-3.6875 2.375 -3.6875 2.375 -2 3 C-1.34 2.01 -0.68 1.02 0 0 Z " fill="#4A9FFE" transform="translate(116,91)"/>
<path d="M0 0 C1.28302002 0.02618408 2.56604004 0.05236816 3.88793945 0.0793457 C4.571772 0.08642044 5.25560455 0.09349518 5.9601593 0.1007843 C8.14163229 0.12874691 10.32052564 0.19147631 12.5012207 0.25512695 C13.9810013 0.28020798 15.46082219 0.30302151 16.94067383 0.32348633 C20.56585934 0.3785756 24.18953823 0.46485588 27.8137207 0.56762695 C28.3087207 2.54762695 28.3087207 2.54762695 28.8137207 4.56762695 C18.87254423 6.09703872 18.87254423 6.09703872 15.8137207 4.56762695 C14.7618457 5.00075195 14.7618457 5.00075195 13.6887207 5.44262695 C11.1417081 6.43928406 9.36121623 6.80234247 6.6887207 7.06762695 C2.75955712 7.28331433 2.75955712 7.28331433 -0.1862793 9.56762695 C1.1337207 9.56762695 2.4537207 9.56762695 3.8137207 9.56762695 C3.8137207 10.22762695 3.8137207 10.88762695 3.8137207 11.56762695 C4.8037207 11.23762695 5.7937207 10.90762695 6.8137207 10.56762695 C6.8137207 11.22762695 6.8137207 11.88762695 6.8137207 12.56762695 C0.5437207 12.56762695 -5.7262793 12.56762695 -12.1862793 12.56762695 C-10.2062793 10.25762695 -8.2262793 7.94762695 -6.1862793 5.56762695 C-5.71343506 4.60832275 -5.24059082 3.64901855 -4.75341797 2.66064453 C-3.1862793 0.56762695 -3.1862793 0.56762695 0 0 Z " fill="#4AD5FC" transform="translate(157.186279296875,79.432373046875)"/>
<path d="M0 0 C0 0.66 0 1.32 0 2 C0.7425 1.835 1.485 1.67 2.25 1.5 C5.85743568 0.8441026 8.50882395 0.83627465 12 2 C12.88855164 4.99553637 13.19605797 6.51639033 12.00390625 9.45703125 C11.52824219 10.23433594 11.05257812 11.01164062 10.5625 11.8125 C10.08941406 12.60269531 9.61632812 13.39289063 9.12890625 14.20703125 C8.57009766 15.09455078 8.57009766 15.09455078 8 16 C7.1028125 14.7934375 7.1028125 14.7934375 6.1875 13.5625 C4.19052724 10.77672016 4.19052724 10.77672016 1 10 C0.01 11.32 -0.98 12.64 -2 14 C-2.33 13.34 -2.66 12.68 -3 12 C-3.66 12 -4.32 12 -5 12 C-5.66 12.66 -6.32 13.32 -7 14 C-7 13.01 -7 12.02 -7 11 C-8.32 11.99 -9.64 12.98 -11 14 C-11 9.15854118 -9.32989474 6.94557115 -6.0625 3.625 C-2.32209738 0 -2.32209738 0 0 0 Z " fill="#3BCFFE" transform="translate(142,57)"/>
<path d="M0 0 C2.12109375 0.3359375 2.12109375 0.3359375 5.12109375 2.3359375 C7.27384323 2.02753151 7.27384323 2.02753151 9.12109375 1.3359375 C7.44491991 3.26353742 6.52337227 4.24128373 3.99609375 4.8359375 C3.37734375 5.0009375 2.75859375 5.1659375 2.12109375 5.3359375 C1.79109375 6.3259375 1.46109375 7.3159375 1.12109375 8.3359375 C-2.33077384 11.54654553 -6.07757636 14.06919695 -10.87890625 14.3359375 C-11.86890625 14.0059375 -12.85890625 13.6759375 -13.87890625 13.3359375 C-15.22026992 13.98629564 -16.55422879 14.652233 -17.87890625 15.3359375 C-18.53890625 15.0059375 -19.19890625 14.6759375 -19.87890625 14.3359375 C-17.53442213 9.47950612 -15.51240323 7.09397142 -10.87890625 4.3359375 C-10.30140625 3.6140625 -9.72390625 2.8921875 -9.12890625 2.1484375 C-6.07538167 -0.31134619 -3.81767688 -0.06437904 0 0 Z " fill="#3CAEFE" transform="translate(36.87890625,42.6640625)"/>
<path d="M0 0 C0.33 0.66 0.66 1.32 1 2 C1.8971875 1.7215625 1.8971875 1.7215625 2.8125 1.4375 C5 1 5 1 8 2 C8 1.34 8 0.68 8 0 C8.99 0 9.98 0 11 0 C10.69433329 6.11333425 7.73371115 9.47072813 4 14 C3.56042969 14.57363281 3.12085938 15.14726563 2.66796875 15.73828125 C0.12632694 18.98996903 -2.33106812 21.11312075 -6 23 C-5.81824219 22.42894531 -5.63648438 21.85789062 -5.44921875 21.26953125 C-3.27440363 14.25435838 -1.58448337 7.16950633 0 0 Z " fill="#FDE645" transform="translate(141,36)"/>
<path d="M0 0 C-0.61746094 0.46148437 -1.23492187 0.92296875 -1.87109375 1.3984375 C-11.20898282 8.5901755 -18.85545657 16.29728151 -24 27 C-24.66 26.67 -25.32 26.34 -26 26 C-25.5910644 20.07043378 -24.7677934 16.78611595 -21 12 C-20.55398437 11.41089844 -20.10796875 10.82179688 -19.6484375 10.21484375 C-15.26970704 4.70045325 -7.38733078 -2.46244359 0 0 Z " fill="#4F90FE" transform="translate(63,37)"/>
<path d="M0 0 C11.66593234 -0.89356078 19.71554123 3.27213133 29 10 C28.34 10.66 27.68 11.32 27 12 C24.8359375 11.7578125 24.8359375 11.7578125 22.375 11.125 C21.55773437 10.92132813 20.74046875 10.71765625 19.8984375 10.5078125 C19.27195312 10.34023438 18.64546875 10.17265625 18 10 C18 9.34 18 8.68 18 8 C15.69 8 13.38 8 11 8 C11 7.34 11 6.68 11 6 C7.7 5.34 4.4 4.68 1 4 C0.67 2.68 0.34 1.36 0 0 Z " fill="#34C2FF" transform="translate(99,11)"/>
<path d="M0 0 C2.96881824 2.45250202 3.46229503 4.23606519 4 8 C4.06701506 10.43666765 4.08528021 12.87501742 4.0625 15.3125 C4.05347656 16.56675781 4.04445312 17.82101563 4.03515625 19.11328125 C4.02355469 20.06589844 4.01195312 21.01851562 4 22 C3.38125 21.505 2.7625 21.01 2.125 20.5 C0.16119096 18.80777227 0.16119096 18.80777227 -2 19 C-2.66 19.99 -3.32 20.98 -4 22 C-4.66 22 -5.32 22 -6 22 C-5.50732632 16.45742111 -3.93300663 11.73763121 -1.9375 6.55078125 C-1.13709033 4.37299994 -0.50819919 2.26042765 0 0 Z " fill="#35FCFE" transform="translate(156,25)"/>
<path d="M0 0 C0.33 1.32 0.66 2.64 1 4 C2.32 2.68 3.64 1.36 5 0 C8.875 1.875 8.875 1.875 10 3 C10.04080783 4.99958364 10.04254356 7.00045254 10 9 C9.01 9.495 9.01 9.495 8 10 C8 9.34 8 8.68 8 8 C6.741875 8.33 5.48375 8.66 4.1875 9 C1.61012698 9.67603227 -0.30212925 10 -3 10 C-5.17032476 11.43990623 -5.17032476 11.43990623 -7 13 C-7.66 12.67 -8.32 12.34 -9 12 C-8.43410156 11.30132812 -7.86820313 10.60265625 -7.28515625 9.8828125 C-6.55167969 8.97273438 -5.81820312 8.06265625 -5.0625 7.125 C-4.33160156 6.22007813 -3.60070312 5.31515625 -2.84765625 4.3828125 C-0.9963748 2.15497253 -0.9963748 2.15497253 0 0 Z " fill="#3EF1FB" transform="translate(149,43)"/>
<path d="M0 0 C11.385 0.99 11.385 0.99 23 2 C22.01 3.485 22.01 3.485 21 5 C21.66 5.66 22.32 6.32 23 7 C15.10161803 7.7898382 8.14698251 5.20014142 1 2 C0.67 1.34 0.34 0.68 0 0 Z " fill="#5F6DD0" transform="translate(24,113)"/>
<path d="M0 0 C-2.07772471 0.86772029 -4.16243177 1.71873619 -6.25 2.5625 C-7.99023438 3.27599609 -7.99023438 3.27599609 -9.765625 4.00390625 C-12.86266644 4.95770524 -14.07321701 5.20983356 -17 4 C-16.67 3.01 -16.34 2.02 -16 1 C-14.0852312 0.63571223 -12.16807707 0.28394694 -10.25 -0.0625 C-9.18265625 -0.25972656 -8.1153125 -0.45695313 -7.015625 -0.66015625 C-4.25228095 -0.97156937 -2.59053383 -0.8991416 0 0 Z " fill="#3EE8FE" transform="translate(102,11)"/>
<path d="M0 0 C0.66 0 1.32 0 2 0 C2.77001757 6.9301581 0.0898056 11.89763393 -3 18 C-4.26395496 14.20813511 -3.4733635 13.64463604 -2 10 C-1.24204952 6.68333079 -0.6108355 3.34659876 0 0 Z " fill="#499EFE" transform="translate(134,42)"/>
<path d="M0 0 C1.5625 1.1875 1.5625 1.1875 3 3 C2.6875 5.6875 2.6875 5.6875 2 8 C0.35 7.67 -1.3 7.34 -3 7 C-3.33 5.35 -3.66 3.7 -4 2 C-2.68 1.34 -1.36 0.68 0 0 Z " fill="#4ACBFA" transform="translate(212,82)"/>
<path d="M0 0 C0.33 0 0.66 0 1 0 C2.125 7.75 2.125 7.75 1 10 C0.34 10 -0.32 10 -1 10 C-1.33 13.3 -1.66 16.6 -2 20 C-2.33 20 -2.66 20 -3 20 C-3 16.04 -3 12.08 -3 8 C-2.01 7.67 -1.02 7.34 0 7 C0 4.69 0 2.38 0 0 Z " fill="#58B7FE" transform="translate(135,32)"/>
<path d="M0 0 C5.94 0.99 5.94 0.99 12 2 C8 5 8 5 5 6 C4.01 5.67 3.02 5.34 2 5 C1.34 3.35 0.68 1.7 0 0 Z " fill="#588AF6" transform="translate(95,106)"/>
<path d="M0 0 C5.61 0.66 11.22 1.32 17 2 C17 2.33 17 2.66 17 3 C14.69 3 12.38 3 10 3 C10 3.66 10 4.32 10 5 C8.51800098 4.55090939 7.03944764 4.09043436 5.5625 3.625 C4.73878906 3.36976562 3.91507813 3.11453125 3.06640625 2.8515625 C1 2 1 2 0 0 Z " fill="#7981CC" transform="translate(24,113)"/>
<path d="M0 0 C0.66 0 1.32 0 2 0 C0.44486447 3.81715086 -1.99599728 6.22707442 -5 9 C-5.33 9 -5.66 9 -6 9 C-6 7.02 -6 5.04 -6 3 C-4.35 3 -2.7 3 -1 3 C-0.67 2.01 -0.34 1.02 0 0 Z " fill="#488AFE" transform="translate(13,79)"/>
<path d="M0 0 C3.3 1.98 6.6 3.96 10 6 C9.34 6.66 8.68 7.32 8 8 C5.5625 7.9375 5.5625 7.9375 3 7 C0 2.96551724 0 2.96551724 0 0 Z " fill="#3FC8FE" transform="translate(118,15)"/>
<path d="M0 0 C0 1.32 0 2.64 0 4 C-0.99 4.33 -1.98 4.66 -3 5 C-4.37195574 6.29355827 -5.71182656 7.62298702 -7 9 C-7.66 8.34 -8.32 7.68 -9 7 C-7.88121617 5.82737096 -6.75476949 4.66204862 -5.625 3.5 C-4.68527344 2.52546875 -4.68527344 2.52546875 -3.7265625 1.53125 C-2 0 -2 0 0 0 Z " fill="#30D4FF" transform="translate(142,57)"/>
<path d="M0 0 C0.33 0 0.66 0 1 0 C1.33 1.65 1.66 3.3 2 5 C2.99 4.67 3.98 4.34 5 4 C4.34 6.31 3.68 8.62 3 11 C1 10 1 10 0 7 C-0.03954234 4.66700175 -0.04401732 2.33291811 0 0 Z " fill="#6A96FA" transform="translate(6,82)"/>
<path d="M0 0 C3.9492568 0.55105909 7.34920174 1.38935371 11 3 C10.67 3.66 10.34 4.32 10 5 C7.8125 5.3125 7.8125 5.3125 5 5 C2.1875 2.5 2.1875 2.5 0 0 Z " fill="#3FCEFE" transform="translate(106,11)"/>
<path d="M0 0 C-5.75 4 -5.75 4 -8 4 C-8.33 3.01 -8.66 2.02 -9 1 C-5.57367167 -0.61798838 -3.61944899 -1.34053666 0 0 Z " fill="#698AF0" transform="translate(85,97)"/>
<path d="M0 0 C1.32 0.66 2.64 1.32 4 2 C1.44008376 4.01136276 -1.04590299 5.62845496 -4 7 C-4 4 -4 4 -2 1.8125 C-1.34 1.214375 -0.68 0.61625 0 0 Z " fill="#57A0FF" transform="translate(68,29)"/>
<path d="M0 0 C0 3 0 3 0 3 Z " fill="#76A6FB" transform="translate(128,62)"/>
<path d="" fill="#5C96FC" transform="translate(0,0)"/>
<path d="" fill="#B1B7E4" transform="translate(0,0)"/>
<path d="" fill="#98A4E8" transform="translate(0,0)"/>
<path d="" fill="#93C2FF" transform="translate(0,0)"/>
<path d="" fill="#FFDA66" transform="translate(0,0)"/>
<path d="" fill="#97F8FF" transform="translate(0,0)"/>
</svg>
